<svg version="1.2" xmlns="http://www.w3.org/2000/svg" viewBox="0 0 390 147" width="390" height="147">
	<title>Nike-01-svg</title>
	<style>
		.s0 { fill: #ffffff } 
	</style>
	<path id="XMLID_1_" class="s0" d="m46.9 142.7c-11.3-0.4-20.6-3.5-27.8-9.3-1.4-1.1-4.7-4.4-5.8-5.8-2.9-3.7-4.9-7.3-6.3-11.3-4.1-12.3-2-28.4 6-46.1 6.9-15.1 17.5-30.1 36-50.9 2.7-3.1 10.8-12 10.9-12 0 0-0.4 0.8-1 1.7-4.8 8.1-8.9 17.5-11.2 25.8-3.6 13.2-3.2 24.5 1.3 33.3 3.1 6 8.3 11.3 14.2 14.2 10.3 5.1 25.5 5.5 43.9 1.2 1.3-0.3 64.3-17 140-37.2 75.9-20.2 137.9-36.7 137.9-36.7 0 0-176 75.3-267.4 114.4-14.5 6.2-18.3 7.7-25.1 10.1-17.4 6.1-33 9.1-45.6 8.6z"/>
</svg>